HIERARCHY
ROOT Hips
{
  OFFSET 1.73907 43.2358 0.0522707
  CHANNELS 6 Xposition Yposition Zposition Zrotation Xrotation Yrotation
  JOINT Bip01_Pelvis
  {
    OFFSET 0 0 0
    CHANNELS 6 Xposition Yposition Zposition Zrotation Xrotation Yrotation
    JOINT BN_Tail_01
    {
      OFFSET -2.28979 -2.39917 0
      CHANNELS 6 Xposition Yposition Zposition Zrotation Xrotation Yrotation
      JOINT BN_Tail_02
      {
        OFFSET 9.67405 0 0
        CHANNELS 6 Xposition Yposition Zposition Zrotation Xrotation Yrotation
        JOINT BN_Tail_03
        {
          OFFSET 10.5192 0 -1.14441e-005
          CHANNELS 6 Xposition Yposition Zposition Zrotation Xrotation Yrotation
          JOINT BN_Tail_04
          {
            OFFSET 8.16754 0 0
            CHANNELS 6 Xposition Yposition Zposition Zrotation Xrotation Yrotation
            End Site
            {
              OFFSET 0 0 0
            }
          }
        }
      }
    }
    JOINT Bip01_Spine
    {
      OFFSET 2.25317 -0.00479889 0
      CHANNELS 6 Xposition Yposition Zposition Zrotation Xrotation Yrotation
      JOINT Bip01_R_Thigh
      {
        OFFSET -2.32652 -0.461891 -2.25534
        CHANNELS 6 Xposition Yposition Zposition Zrotation Xrotation Yrotation
        JOINT Bip01_R_Calf
        {
          OFFSET 9.47902 0 0
          CHANNELS 6 Xposition Yposition Zposition Zrotation Xrotation Yrotation
          JOINT Bip01_R_Foot
          {
            OFFSET 8.42616 0 0
            CHANNELS 6 Xposition Yposition Zposition Zrotation Xrotation Yrotation
            JOINT Bip01_R_Toe1
            {
              OFFSET 1.4015 3.97627 -1.33795
              CHANNELS 6 Xposition Yposition Zposition Zrotation Xrotation Yrotation
              JOINT Bip01_R_Toe11
              {
                OFFSET 2.94553 0 0
                CHANNELS 6 Xposition Yposition Zposition Zrotation Xrotation Yrotation
                JOINT Bip01_R_Toe1Nub
                {
                  OFFSET 2.52656 0 0
                  CHANNELS 6 Xposition Yposition Zposition Zrotation Xrotation Yrotation
                  End Site
                  {
                    OFFSET 0 0 0
                  }
                }
              }
            }
            JOINT Bip01_R_Toe0
            {
              OFFSET 2.09729 6.93129 0.0277901
              CHANNELS 6 Xposition Yposition Zposition Zrotation Xrotation Yrotation
              JOINT Bip01_R_Toe01
              {
                OFFSET 3.0714 0 0
                CHANNELS 6 Xposition Yposition Zposition Zrotation Xrotation Yrotation
                JOINT Bip01_R_Toe0Nub
                {
                  OFFSET 3.37999 0 0
                  CHANNELS 6 Xposition Yposition Zposition Zrotation Xrotation Yrotation
                  End Site
                  {
                    OFFSET 0 0 0
                  }
                }
              }
            }
          }
        }
      }
      JOINT Bip01_L_Thigh
      {
        OFFSET -2.07803 -0.462101 2.48614
        CHANNELS 6 Xposition Yposition Zposition Zrotation Xrotation Yrotation
        JOINT Bip01_L_Calf
        {
          OFFSET 9.47902 0 0
          CHANNELS 6 Xposition Yposition Zposition Zrotation Xrotation Yrotation
          JOINT Bip01_L_Foot
          {
            OFFSET 8.42617 0 0
            CHANNELS 6 Xposition Yposition Zposition Zrotation Xrotation Yrotation
            JOINT Bip01_L_Toe1
            {
              OFFSET 1.40151 3.97627 1.33796
              CHANNELS 6 Xposition Yposition Zposition Zrotation Xrotation Yrotation
              JOINT Bip01_L_Toe11
              {
                OFFSET 2.94554 0 0
                CHANNELS 6 Xposition Yposition Zposition Zrotation Xrotation Yrotation
                JOINT Bip01_L_Toe1Nub
                {
                  OFFSET 2.52656 0 0
                  CHANNELS 6 Xposition Yposition Zposition Zrotation Xrotation Yrotation
                  End Site
                  {
                    OFFSET 0 0 0
                  }
                }
              }
            }
            JOINT Bip01_L_Toe0
            {
              OFFSET 2.0973 6.93128 -0.0277834
              CHANNELS 6 Xposition Yposition Zposition Zrotation Xrotation Yrotation
              JOINT Bip01_L_Toe01
              {
                OFFSET 3.07141 0 0
                CHANNELS 6 Xposition Yposition Zposition Zrotation Xrotation Yrotation
                JOINT Bip01_L_Toe0Nub
                {
                  OFFSET 3.37999 0 0
                  CHANNELS 6 Xposition Yposition Zposition Zrotation Xrotation Yrotation
                  End Site
                  {
                    OFFSET 0 0 0
                  }
                }
              }
            }
          }
        }
      }
      JOINT Bip01_Spine1
      {
        OFFSET 6.17162 -0.00484467 0
        CHANNELS 6 Xposition Yposition Zposition Zrotation Xrotation Yrotation
        JOINT BN_R_Clavicle_01
        {
          OFFSET 6.15897 -2.02444 -2.78435
          CHANNELS 6 Xposition Yposition Zposition Zrotation Xrotation Yrotation
          JOINT BN_R_UpperArm_01
          {
            OFFSET 3.43915 0 0
            CHANNELS 6 Xposition Yposition Zposition Zrotation Xrotation Yrotation
            JOINT BN_R__Forearm_01
            {
              OFFSET 10.2529 0 0
              CHANNELS 6 Xposition Yposition Zposition Zrotation Xrotation Yrotation
              JOINT BN_R_Hand_01
              {
                OFFSET 16.2051 0 0
                CHANNELS 6 Xposition Yposition Zposition Zrotation Xrotation Yrotation
                JOINT BN_R_Finger_07
                {
                  OFFSET 2.2539 2.19923 0.192043
                  CHANNELS 6 Xposition Yposition Zposition Zrotation Xrotation Yrotation
                  End Site
                  {
                    OFFSET 0 0 0
                  }
                }
                JOINT BN_R_Finger_01
                {
                  OFFSET 2.17806 -1.99631 -0.219296
                  CHANNELS 6 Xposition Yposition Zposition Zrotation Xrotation Yrotation
                  End Site
                  {
                    OFFSET 0 0 0
                  }
                }
                JOINT BN_R_Finger_05
                {
                  OFFSET 3.30715 1.42802 0.17391
                  CHANNELS 6 Xposition Yposition Zposition Zrotation Xrotation Yrotation
                  End Site
                  {
                    OFFSET 0 0 0
                  }
                }
                JOINT BN_R_Finger_03
                {
                  OFFSET 3.93641 -0.769831 0.580946
                  CHANNELS 6 Xposition Yposition Zposition Zrotation Xrotation Yrotation
                  End Site
                  {
                    OFFSET 0 0 0
                  }
                }
              }
            }
          }
        }
        JOINT BN_L_Clavicle_01
        {
          OFFSET 6.15897 -2.02445 2.78458
          CHANNELS 6 Xposition Yposition Zposition Zrotation Xrotation Yrotation
          JOINT BN_L_UpperArm_01
          {
            OFFSET 3.43915 0 0
            CHANNELS 6 Xposition Yposition Zposition Zrotation Xrotation Yrotation
            JOINT BN_L__Forearm_01
            {
              OFFSET 10.2529 0 0
              CHANNELS 6 Xposition Yposition Zposition Zrotation Xrotation Yrotation
              JOINT BN_L_Hand_01
              {
                OFFSET 16.2051 0 0
                CHANNELS 6 Xposition Yposition Zposition Zrotation Xrotation Yrotation
                JOINT BN_L_Finger_05
                {
                  OFFSET 3.30715 -1.42803 0.173891
                  CHANNELS 6 Xposition Yposition Zposition Zrotation Xrotation Yrotation
                  End Site
                  {
                    OFFSET 0 0 0
                  }
                }
                JOINT BN_L_Finger_07
                {
                  OFFSET 2.2539 -2.19925 0.19203
                  CHANNELS 6 Xposition Yposition Zposition Zrotation Xrotation Yrotation
                  End Site
                  {
                    OFFSET 0 0 0
                  }
                }
                JOINT BN_L_Finger_01
                {
                  OFFSET 2.17804 1.99629 -0.219303
                  CHANNELS 6 Xposition Yposition Zposition Zrotation Xrotation Yrotation
                  End Site
                  {
                    OFFSET 0 0 0
                  }
                }
                JOINT BN_L_Finger_03
                {
                  OFFSET 3.9364 0.769825 0.580943
                  CHANNELS 6 Xposition Yposition Zposition Zrotation Xrotation Yrotation
                  End Site
                  {
                    OFFSET 0 0 0
                  }
                }
              }
            }
          }
        }
        JOINT Bip01_Neck
        {
          OFFSET 7.02381 -0.81237 0
          CHANNELS 6 Xposition Yposition Zposition Zrotation Xrotation Yrotation
          JOINT Bip01_Head
          {
            OFFSET 1.54249 1.14441e-005 0
            CHANNELS 6 Xposition Yposition Zposition Zrotation Xrotation Yrotation
            JOINT BN_Mouth_01
            {
              OFFSET 2.32836 0.166542 0
              CHANNELS 6 Xposition Yposition Zposition Zrotation Xrotation Yrotation
              End Site
              {
                OFFSET 0 0 0
              }
            }
            JOINT BN_R_Ear_01
            {
              OFFSET 3.4208 -0.773972 -2.25959
              CHANNELS 6 Xposition Yposition Zposition Zrotation Xrotation Yrotation
              End Site
              {
                OFFSET 0 0 0
              }
            }
            JOINT BN_L_Ear_01
            {
              OFFSET 3.4208 -0.773976 2.25975
              CHANNELS 6 Xposition Yposition Zposition Zrotation Xrotation Yrotation
              End Site
              {
                OFFSET 0 0 0
              }
            }
            JOINT Bip01_HeadNub
            {
              OFFSET 6.74789 0 0
              CHANNELS 6 Xposition Yposition Zposition Zrotation Xrotation Yrotation
              End Site
              {
                OFFSET 0 0 0
              }
            }
          }
        }
      }
    }
  }
}
MOTION
Frames:	4
Frame Time:	0.0333333
1.73907 50.9002 0.0522707 -179.998 -85.0032 -90.0018 0 0 0 -89.9965 -3.50835e-015 -90 -2.28978 -2.39919 -4.76837e-007 -67.4364 87.8025 -121.341 9.67405 -4.76837e-007 -3.8147e-006 -14.8537 -0.2329 8.36377 10.5192 4.76837e-007 7.6294e-006 -8.22586 -3.6509 23.7709 8.16754 -8.34465e-007 -3.8147e-006 -9.51038 -3.07528 17.7426 2.25317 -0.00479889 -4.76837e-007 -11.9511 -0.00248118 -2.99999 -2.32675 -0.46191 -2.25535 0.484922 -4.53447 157.111 9.47902 0 -1.77636e-015 -18.7408 1.19436e-006 8.626e-006 8.42616 0 2.86102e-006 -24.9125 -3.50652 12.0182 1.40149 3.97626 -1.33795 85.448 -41.301 29.1432 2.94555 0 1.90735e-006 -35.906 -3.41401e-007 6.50985e-007 2.52656 7.10543e-015 -5.72205e-006 2.39716e-007 1.00394e-005 -1.04928e-006 2.09729 6.93128 0.0277977 64.9971 -1.5094e-006 1.96669e-005 3.07141 7.6294e-006 0 -25.9965 3.9514e-007 1.15486e-006 3.37999 1.14441e-005 -1.90735e-006 4.32461e-008 -1.62585e-007 1.11221e-008 -2.07803 -0.462116 2.48614 6.67145 6.79891 -161.734 9.47902 -7.62939e-006 0 -18.7408 -1.68404e-006 3.86684e-006 8.42617 0 -8.88179e-016 -27.952 7.52469 -5.38797 1.4015 3.97627 1.33796 71.6031 45.866 -19.564 2.94554 0 -7.6294e-006 -37.908 -1.33006e-005 1.101e-005 2.52655 -1.90735e-006 0 -179.96 -2.28676e-005 4.51086e-005 2.0973 6.93128 -0.0277853 53.9964 4.3926e-006 -3.68549e-006 3.07142 7.62939e-006 4.76837e-007 -37.9967 1.28494e-006 5.24582e-006 3.38 1.90735e-006 -8.88179e-016 179.96 -3.69472e-005 4.44365e-005 6.17162 -0.00486755 0 -8.99695 2.88567e-007 -9.26008e-008 6.15898 -2.02443 -2.78435 -178.034 9.59832 77.6605 3.43915 -7.6294e-006 3.8147e-006 114.546 76.7385 -78.9066 10.2529 7.10543e-015 -3.8147e-006 -63.5646 1.35904 0.854418 16.2051 0 0 28.2954 0.192115 27.6929 2.25392 2.19924 0.192034 68.6884 0.541532 1.29463 2.17808 -1.9963 -0.21931 -71.0401 -0.181409 7.61481 3.30716 1.42803 0.1739 21.8197 1.0863 21.5549 3.93642 -0.769822 0.580935 -1.20256 0.422094 36.3799 6.15897 -2.02443 2.78458 1.93808 9.5763 -102.334 3.43915 0 -7.10543e-015 -94.2894 -74.9892 -49.4282 10.2529 0 -3.8147e-006 67.8409 -5.28635 6.96413 16.2051 0 -3.8147e-006 -25.4497 -4.51826 33.7681 3.30716 -1.42803 0.173893 -21.8177 -1.08595 15.5545 2.25392 -2.19925 0.192029 -68.6818 -0.539321 2.29587 2.17804 1.9963 -0.219304 71.0446 0.182694 6.61524 3.9364 0.769833 0.580942 0.557816 -2.50045 29.3731 7.02382 -0.812359 4.76837e-007 10.998 -4.6689e-007 2.3203e-007 1.54249 -7.6294e-006 -8.88179e-016 -23.1084 -0.233311 4.80828 2.32835 0.166561 2.38419e-007 -67.6451 -0.0194397 -179.971 3.42079 -0.773964 -2.25959 120.422 3.05235 168.015 3.42079 -0.773968 2.25975 -59.6331 -0.212933 -9.67791 6.74787 0 -2.22045e-016 1.06865e-006 4.83345e-008 -1.67477e-008 
1.51762 50.9521 0.132264 177.834 -85.2756 -93.0083 0 0 0 -89.9965 -3.50835e-015 -90 -2.28978 -2.39919 -4.76837e-007 -82.0952 86.2757 -105.497 9.67405 -4.76837e-007 -3.8147e-006 -13.0804 -0.35271 6.04776 10.5192 4.76837e-007 7.6294e-006 -9.77206 -3.34295 23.9035 8.16754 -8.34465e-007 -3.8147e-006 -12.4126 -3.70798 20.5369 2.25317 -0.00479889 -4.76837e-007 -10.5094 -0.037265 -2.63835 -2.32328 -0.403745 -2.26994 -0.984777 -4.55695 158.415 9.47902 -2.13163e-014 1.77636e-015 -16.2711 1.14276e-006 8.7393e-006 8.42616 0 2.86102e-006 -28.0828 -1.02823 10.888 1.40149 3.97626 -1.33795 83.7518 -41.9898 28.0161 2.94555 -1.42109e-014 1.90735e-006 -35.1828 -4.69627e-006 7.79185e-006 2.52656 1.42109e-014 -5.72205e-006 2.39716e-007 1.00394e-005 -1.04928e-006 2.09729 6.93128 0.0277977 63.5566 -2.09439e-006 1.97168e-005 3.07141 7.6294e-006 1.42109e-014 -25.2718 1.06557e-006 -1.10791e-008 3.37999 1.14441e-005 -1.90735e-006 4.32461e-008 -1.62585e-007 1.11221e-008 -2.10521 -0.406781 2.47326 4.069 6.4264 -160.913 9.47902 -7.62939e-006 4.17444e-014 -18.7881 -5.33668e-006 1.23913e-005 8.42617 -2.13163e-014 -5.32907e-015 -28.5409 8.04812 -6.04766 1.4015 3.97627 1.33796 72.2935 45.6925 -20.0588 2.94554 -2.84217e-014 -7.6294e-006 -37.1844 -1.15481e-005 1.14464e-005 2.52655 -1.90735e-006 -1.42109e-014 -179.96 -2.28651e-005 4.51078e-005 2.0973 6.93128 -0.0277854 52.5556 3.82225e-006 -3.30181e-006 3.07142 7.62939e-006 4.76837e-007 -37.2729 1.90469e-006 5.41852e-006 3.38 1.90735e-006 -3.55271e-015 179.96 -3.6948e-005 4.44367e-005 6.17162 -0.00486755 -2.88125e-012 -7.06668 0.0768618 -1.49373 6.15898 -2.02443 -2.78435 -178.034 9.59832 77.6605 3.43915 -7.62939e-006 3.8147e-006 105.012 69.8334 -88.3993 10.2529 -7.10543e-015 -3.8147e-006 -63.2 0.188617 -1.56012 16.2051 -2.41585e-013 0 29.1467 -0.853363 29.6069 2.25392 2.19924 0.192034 68.5302 0.539765 6.10672 2.17808 -1.9963 -0.21931 -71.0464 -0.182438 6.30993 3.30716 1.42803 0.1739 21.6284 1.09819 22.8423 3.93642 -0.769822 0.580935 -1.30895 0.45072 33.8212 6.15897 -2.02443 2.78458 1.9381 9.57629 -102.334 3.43915 7.10543e-015 0 -80.4767 -70.0789 -55.8005 10.2529 9.9476e-014 -3.8147e-006 65.9137 -4.10425 5.18904 16.2051 -5.54224e-013 -3.8147e-006 -26.4718 -2.71331 33.7329 3.30716 -1.42803 0.173893 -21.8243 -1.07066 19.3941 2.25392 -2.19925 0.192029 -68.6324 -0.536293 7.51685 2.17804 1.9963 -0.219304 71.0531 0.183856 4.33653 3.9364 0.769833 0.580942 0.523267 -2.46573 29.0405 7.02382 -0.812359 4.76973e-007 10.998 -5.50236e-007 2.33854e-007 1.54249 -7.6294e-006 -3.55271e-015 -26.7071 -0.328165 5.94645 2.32835 0.166561 2.38409e-007 -67.0013 -0.0241546 -179.963 3.42079 -0.773964 -2.25959 118.232 3.38095 168.309 3.42079 -0.773968 2.25975 -62.3059 0.278064 -10.0878 6.74787 7.10543e-015 -2.22045e-016 1.06865e-006 4.83345e-008 -1.67477e-008 
1.30359 51.4699 0.234269 170.378 -85.7871 -101.283 0 0 0 -89.9965 -3.50835e-015 -90 -2.28978 -2.39919 -4.76837e-007 -89.1261 84.3983 -96.5992 9.67405 -4.76837e-007 -3.8147e-006 -8.88882 -0.630248 0.57189 10.5192 4.76837e-007 7.6294e-006 -10.7326 -3.02023 22.3763 8.16754 -8.34465e-007 -3.8147e-006 -14.9391 -4.7304 22.7764 2.25317 -0.00479889 -4.76837e-007 -7.2636 -0.0952748 -1.64606 -2.30382 -0.275517 -2.30925 -4.64772 -4.32325 160.073 9.47902 0 -1.77636e-015 -12.0067 1.03999e-006 8.88161e-006 8.42616 -2.84217e-014 2.86102e-006 -32.2879 2.74464 9.24006 1.40149 3.97626 -1.33795 79.3037 -43.6204 24.9922 2.94555 -4.26326e-014 1.90735e-006 -33.36 -3.70867e-006 8.47124e-006 2.52656 7.10543e-015 -5.72205e-006 2.39716e-007 1.00394e-005 -1.04928e-006 2.09729 6.93128 0.0277977 59.9092 -3.50526e-006 1.9887e-005 3.07141 7.6294e-006 1.42109e-014 -23.4402 5.05324e-007 1.18316e-006 3.37999 1.14441e-005 -1.90735e-006 4.32461e-008 -1.62585e-007 1.11221e-008 -2.16658 -0.283973 2.43655 -1.33134 5.71746 -160.364 9.47902 -7.62939e-006 1.30562e-013 -18.553 -5.92291e-006 1.22031e-005 8.42617 -1.42109e-014 -4.44089e-015 -28.6752 7.6725 -6.88535 1.4015 3.97627 1.33796 74.036 45.2312 -21.3009 2.94554 0 -7.6294e-006 -35.3587 -7.94813e-006 1.1844e-005 2.52655 -1.90735e-006 -2.13163e-014 -179.96 -2.286e-005 4.5106e-005 2.0973 6.93128 -0.0277854 48.9068 3.06079e-006 -2.74077e-006 3.07142 7.62939e-006 4.76837e-007 -35.4395 2.81921e-006 5.55748e-006 3.38 1.90735e-006 8.88179e-016 179.96 -3.69495e-005 4.44368e-005 6.17162 -0.00486755 -8.73701e-012 -4.7762 0.0339246 -3.49933 6.15898 -2.02443 -2.78435 -178.034 9.59832 77.6605 3.43915 -7.6294e-006 3.8147e-006 86.8238 60.8959 -94.8628 10.2529 -1.77636e-014 -3.8147e-006 -61.067 -1.82206 -4.94924 16.2051 2.70006e-013 -7.10544e-015 30.5123 -2.37959 29.4226 2.25392 2.19924 0.192034 68.2899 0.542277 12.603 2.17808 -1.9963 -0.21931 -71.0365 -0.181692 4.13864 3.30716 1.42803 0.1739 21.2572 1.13567 23.4579 3.93642 -0.769822 0.580935 -1.5043 0.511957 27.9732 6.15897 -2.02443 2.78458 1.9381 9.57629 -102.334 3.43915 2.13163e-014 -7.10543e-015 -58.7247 -64.1064 -60.5238 10.2529 -3.32179e-013 -3.8147e-006 61.5878 -2.63706 2.33323 16.2051 1.22036e-012 -3.8147e-006 -27.5802 -0.258981 30.9246 3.30716 -1.42803 0.173893 -21.8318 -1.05606 23.1591 2.25392 -2.19925 0.192029 -68.5597 -0.521441 15.3462 2.17804 1.9963 -0.219304 71.0625 0.18365 1.06353 3.9364 0.769833 0.580942 0.48144 -2.46629 26.2358 7.02382 -0.812359 4.75547e-007 10.998 -6.34808e-007 2.14675e-007 1.54249 -7.6294e-006 -2.04281e-014 -32.6545 -0.355957 6.82746 2.32835 0.166561 2.38271e-007 -66.37 -0.0286865 -179.956 3.42079 -0.773964 -2.25959 115.713 3.73054 169.051 3.42079 -0.773968 2.25975 -65.3849 0.815808 -10.8944 6.74787 0 -6.66134e-016 1.06865e-006 4.83345e-008 -1.67477e-008 
1.1249 52.2993 0.33812 157.283 -86.2773 -115.1 0 0 0 -89.9965 -3.50835e-015 -90 -2.28978 -2.39919 -4.76837e-007 -92.0409 82.4362 -91.4789 9.67405 -4.76837e-007 -3.8147e-006 -3.59617 -0.981524 -6.34623 10.5192 4.76837e-007 7.6294e-006 -11.0793 -2.69961 19.6639 8.16754 -8.34465e-007 -3.8147e-006 -16.8505 -5.84349 24.0952 2.25317 -0.00479889 -4.76837e-007 -3.07112 -0.0900132 -0.296286 -2.26342 -0.111685 -2.36273 -9.47557 -3.85899 161.729 9.47902 -2.13163e-014 0 -7.06525 2.06686e-006 -1.03976e-006 8.42616 -7.81597e-014 2.86102e-006 -36.4369 6.82662 7.27335 1.40149 3.97626 -1.33795 73.4272 -45.3962 20.8701 2.94555 -9.23706e-014 1.90735e-006 -31.0813 -2.62509e-006 9.23217e-006 2.52656 7.10543e-015 -5.72205e-006 2.39716e-007 1.00394e-005 -1.04928e-006 2.09729 6.93128 0.0277977 55.3547 -1.30482e-005 1.46168e-005 3.07141 7.6294e-006 2.4869e-014 -21.1518 7.27653e-007 2.96684e-007 3.37999 1.14441e-005 -1.90735e-006 4.32461e-008 -1.62585e-007 1.11221e-008 -2.23822 -0.119361 2.38512 -8.13169 4.96129 -160.18 9.47902 -7.62939e-006 2.52243e-013 -18.2519 -3.4692e-006 3.34663e-006 8.42617 -3.55271e-014 -6.21725e-015 -28.3872 6.54335 -7.70369 1.4015 3.97627 1.33796 76.1697 44.6191 -22.8077 2.94554 4.26326e-014 -7.6294e-006 -33.0827 -4.189e-006 1.18993e-005 2.52655 -1.90735e-006 1.42109e-014 -179.96 -2.28537e-005 4.51038e-005 2.0973 6.93128 -0.0277855 44.3558 2.07661e-006 -2.1634e-006 3.07142 7.62939e-006 4.76838e-007 -33.1521 4.01926e-006 5.69308e-006 3.38 1.90735e-006 -3.55271e-015 179.96 -3.69514e-005 4.4437e-005 6.17162 -0.00486755 -1.39844e-011 -2.33824 -0.127951 -5.56644 6.15898 -2.02443 -2.78435 -178.034 9.59832 77.6605 3.43915 -7.62939e-006 3.8147e-006 63.9394 51.4731 -97.74 10.2529 -8.88178e-015 -3.8147e-006 -58.2679 -4.11766 -8.77604 16.2051 1.39977e-012 7.10544e-015 31.6042 -4.01291 27.4482 2.25392 2.19925 0.192036 68.0485 0.517127 19.1635 2.17807 -1.9963 -0.219311 -71.0264 -0.181301 1.9459 3.30716 1.42803 0.173901 21.0168 1.1606 23.2393 3.93642 -0.769822 0.580934 -1.46706 0.545079 20.0662 6.15897 -2.02443 2.78458 1.9381 9.57629 -102.334 3.43915 2.84217e-014 -3.55271e-015 -33.631 -57.8127 -64.0188 10.2529 -6.50147e-013 -3.8147e-006 56.2448 -0.994981 -1.03063 16.2051 2.19558e-012 -3.8147e-006 -28.273 2.57656 26.1825 3.30716 -1.42803 0.173894 -21.8346 -1.0461 26.0604 2.25392 -2.19925 0.19203 -68.4891 -0.496552 23.253 2.17804 1.9963 -0.219305 71.0772 0.18335 -3.04082 3.9364 0.769833 0.580941 0.462151 -2.49682 21.6014 7.02382 -0.812359 4.72436e-007 10.998 -7.03067e-007 1.72804e-007 1.54249 -7.6294e-006 -4.61853e-014 -39.8288 -0.478452 7.18539 2.32835 0.166561 2.38021e-007 -66.0827 -0.0285187 -179.956 3.42079 -0.773964 -2.25959 113.163 4.04999 169.815 3.42079 -0.773968 2.25975 -68.4869 1.40221 -11.6784 6.74787 7.10543e-015 -4.44089e-016 1.06865e-006 4.83345e-008 -1.67477e-008 
